<?xml version="1.0" encoding="UTF-8"?><svg id="a" xmlns="http://www.w3.org/2000/svg" width="562" height="78.99" viewBox="0 0 562 78.99"><path d="M43.15,12.35v8.25H18.96c-4.26,0-6.15,2.31-6.15,5.59,0,2.87,1.47,5.59,6.99,5.59h11.04c12.86,0,15.87,7.13,15.87,13.91,0,7.97-4.26,13.84-15.03,13.84H5.4v-8.25H31.97c4.47,0,6.5-2.45,6.5-5.87,0-3.08-1.61-5.87-7.41-5.87h-10.97c-12.58,0-15.52-7.06-15.52-13.63,0-7.83,4.19-13.56,14.68-13.56h23.91Z" fill="#0b3d91" stroke="#0b3d91" stroke-miterlimit="10" stroke-width="2"/><path d="M60.55,59.54h-9.09l16.57-41.94c1.75-4.4,4.96-6.08,9.93-6.08s8.11,1.68,9.79,6.08l15.94,41.94h-9.16l-14.33-37.96c-.42-1.12-1.19-1.61-2.31-1.61s-1.89,.49-2.38,1.61l-14.96,37.96Z" fill="#0b3d91" stroke="#0b3d91" stroke-miterlimit="10" stroke-width="2"/><path d="M118.77,59.54h-8.18V22.07c0-6.29,3.7-10.55,11.32-10.55,6.71,0,10.56,3.35,11.88,9.3l6.64,28.87c.42,1.68,1.4,2.66,3.15,2.66s2.73-.98,3.15-2.66l6.64-28.87c1.33-5.94,4.82-9.3,11.6-9.3,7.62,0,11.32,4.26,11.32,10.55V59.54h-8.18V22.49c0-1.82-1.19-3.01-3.35-3.01-1.96,0-2.94,.98-3.29,2.52l-6.78,28.87c-1.47,6.22-4.68,9.51-11.18,9.51s-10-3.43-11.39-9.51l-6.71-28.87c-.35-1.54-1.4-2.52-3.29-2.52-2.17,0-3.35,1.19-3.35,3.01V59.54Z" fill="#0b3d91" stroke="#0b3d91" stroke-miterlimit="10" stroke-width="2"/><path d="M211.74,12.35c10.62,0,15.17,6.57,15.17,14.12,0,7.13-4.12,14.82-15.17,14.82h-14.68c-.77,0-1.19,.35-1.19,1.19v17.06h-8.25v-18.66c0-5.31,2.24-7.48,7.41-7.48h16.99c4.68,0,6.57-3.22,6.57-6.5s-2.03-6.29-6.5-6.29h-24.53V12.35h24.19Z" fill="#0b3d91" stroke="#0b3d91" stroke-miterlimit="10" stroke-width="2"/><path d="M242.91,12.35v30.83c0,4.54,2.24,8.11,9.65,8.11h18.31v8.25h-18.8c-12.51,0-17.41-6.85-17.41-16.29V12.35h8.25Z" fill="#0b3d91" stroke="#0b3d91" stroke-miterlimit="10" stroke-width="2"/><path d="M316.3,12.35v8.25h-23.63c-4.96,0-7.13,2.31-7.13,5.94,0,3.84,2.45,5.59,7.2,5.59h23.21v7.48h-23.42c-4.75,0-7.2,1.89-7.2,5.73s2.31,5.94,7.13,5.94h23.91v8.25h-23.91c-11.18,0-15.73-5.52-15.73-12.86,0-5.38,2.45-9.02,6.78-10.83-4.4-1.82-6.64-5.45-6.64-10.62,0-7.55,4.68-12.86,15.8-12.86h23.63Z" fill="#0b3d91" stroke="#0b3d91" stroke-miterlimit="10" stroke-width="2"/><path d="M363.48,12.35v8.25h-24.19c-4.26,0-6.15,2.31-6.15,5.59,0,2.87,1.47,5.59,6.99,5.59h11.04c12.86,0,15.87,7.13,15.87,13.91,0,7.97-4.26,13.84-15.03,13.84h-26.28v-8.25h26.56c4.47,0,6.5-2.45,6.5-5.87,0-3.08-1.61-5.87-7.41-5.87h-10.97c-12.58,0-15.52-7.06-15.52-13.63,0-7.83,4.19-13.56,14.68-13.56h23.91Z" fill="#fc3d21" stroke="#fc3d21" stroke-miterlimit="10" stroke-width="2"/><path d="M400.24,12.35c10.62,0,15.17,6.57,15.17,14.12,0,7.13-4.12,14.82-15.17,14.82h-14.68c-.77,0-1.19,.35-1.19,1.19v17.06h-8.25v-18.66c0-5.31,2.24-7.48,7.41-7.48h16.99c4.68,0,6.57-3.22,6.57-6.5s-2.03-6.29-6.5-6.29h-24.54V12.35h24.19Z" fill="#fc3d21" stroke="#fc3d21" stroke-miterlimit="10" stroke-width="2"/><path d="M423.24,59.54h-9.09l16.57-41.94c1.75-4.4,4.96-6.08,9.93-6.08s8.11,1.68,9.79,6.08l15.94,41.94h-9.16l-14.33-37.96c-.42-1.12-1.19-1.61-2.31-1.61s-1.89,.49-2.38,1.61l-14.96,37.96Z" fill="#fc3d21" stroke="#fc3d21" stroke-miterlimit="10" stroke-width="2"/><path d="M508.44,12.35v8.25h-18.24c-9.09,0-13.07,4.54-13.07,15.38s3.92,15.31,13.07,15.31h18.24v8.25h-18.24c-13.77,0-21.32-7.76-21.32-23.56s7.62-23.63,21.32-23.63h18.24Z" fill="#fc3d21" stroke="#fc3d21" stroke-miterlimit="10" stroke-width="2"/><path d="M555.97,12.35v8.25h-23.63c-4.96,0-7.13,2.31-7.13,5.94,0,3.84,2.45,5.59,7.2,5.59h23.21v7.48h-23.42c-4.75,0-7.2,1.89-7.2,5.73s2.31,5.94,7.13,5.94h23.91v8.25h-23.91c-11.18,0-15.73-5.52-15.73-12.86,0-5.38,2.45-9.02,6.78-10.83-4.4-1.82-6.64-5.45-6.64-10.62,0-7.55,4.68-12.86,15.8-12.86h23.63Z" fill="#fc3d21" stroke="#fc3d21" stroke-miterlimit="10" stroke-width="2"/></svg>